<svg width="20" height="19" viewBox="0 0 20 19" fill="none" xmlns="http://www.w3.org/2000/svg">
<path fill-rule="evenodd" clip-rule="evenodd" d="M19.1667 3.99996H2.5C2.04083 3.99996 1.66667 3.62579 1.66667 3.16663C1.66667 2.70746 2.04083 2.33329 2.5 2.33329H3.33333V0.666626H2.5C1.11917 0.666626 0 1.78579 0 3.16663V15.6666C0 17.5075 1.4925 19 3.33333 19H19.1667C19.6267 19 20 18.6266 20 18.1666V4.83329C20 4.37329 19.6267 3.99996 19.1667 3.99996ZM15 13.1666C14.0792 13.1666 13.3333 12.4208 13.3333 11.5C13.3333 10.5791 14.0792 9.83329 15 9.83329C15.9208 9.83329 16.6667 10.5791 16.6667 11.5C16.6667 12.4208 15.9208 13.1666 15 13.1666Z" fill="white"/>
</svg>
