<svg width="20" height="20" viewBox="0 0 20 20" fill="none" xmlns="http://www.w3.org/2000/svg">
<path fill-rule="evenodd" clip-rule="evenodd" d="M12.884 11.6858C12.0198 12.1933 11.0482 12.5 9.99984 12.5C8.9515 12.5 7.97984 12.1933 7.11567 11.6858C4.07817 11.885 1.6665 14.4133 1.6665 17.5V18.9416L2.24567 19.1275C2.35734 19.1625 5.0315 20 9.99984 20C14.9682 20 17.6423 19.1625 17.754 19.1275L18.3332 18.9416V17.5C18.3332 14.4133 15.9215 11.885 12.884 11.6858Z" fill="white"/>
<path fill-rule="evenodd" clip-rule="evenodd" d="M10 10.8333C12.8158 10.8333 15 7.6975 15 5C15 2.2425 12.7575 0 10 0C7.2425 0 5 2.2425 5 5C5 7.6975 7.18417 10.8333 10 10.8333Z" fill="white"/>
</svg>
