<?xml version="1.0" encoding="UTF-8"?>
<svg id="Calque_1" data-name="Calque 1" xmlns="http://www.w3.org/2000/svg" viewBox="0 0 20 20">
  <defs>
    <style>
      .cls-1 {
        fill: #fff;
        fill-rule: evenodd;
      }
    </style>
  </defs>
  <path class="cls-1" d="m13.78,11.28c-.33-.31-.85-.31-1.17.01-.32.32-.33.84-.01,1.16l2.35,2.34-1.1,1.09-2.35-2.34c-.21-.22-.52-.3-.81-.23-.29.08-.52.3-.6.59-.08.29.01.6.23.81l2.13,2.12c-.6.25-1.25.36-1.9.31-.06.59-.29,1.14-.67,1.6.31.05.63.08.95.08,1.55,0,3.03-.61,4.12-1.7l1.76-1.77c.32-.33.32-.85,0-1.17l-2.93-2.91Z"/>
  <path class="cls-1" d="m1.52,10.82c.25-.24.54-.44.85-.58-1.01-1.69-.94-3.81.17-5.42,1.12-1.62,3.08-2.44,5.02-2.1l.36-.36c.35-.35.74-.67,1.15-.95C6.36.39,3.29,1.23,1.47,3.49c-1.82,2.26-1.97,5.44-.37,7.86.12-.19.26-.37.42-.53Z"/>
  <path class="cls-1" d="m2.11,11.4c.85-.84,2.22-.84,3.07,0l3.93,3.92c.85.85.85,2.23,0,3.08-.85.84-2.22.84-3.07,0l-3.93-3.92c-.85-.85-.85-2.23,0-3.08Z"/>
  <path class="cls-1" d="m18.03,2.94C15.4.32,11.15.32,8.52,2.94l-3.86,3.85.59.59c1.02,1.01,2.66,1.01,3.68,0l1.49-1.49,7.02,7.12.59-.59c2.63-2.62,2.63-6.86,0-9.48h0Z"/>
</svg>