<?xml version="1.0" standalone="no"?>
<!DOCTYPE svg PUBLIC "-//W3C//DTD SVG 20010904//EN"
 "http://www.w3.org/TR/2001/REC-SVG-20010904/DTD/svg10.dtd">
<svg version="1.0" xmlns="http://www.w3.org/2000/svg"
 width="512.000000pt" height="512.000000pt" viewBox="0 0 512.000000 512.000000"
 preserveAspectRatio="xMidYMid meet">

<g transform="translate(0.000000,512.000000) scale(0.100000,-0.100000)"
fill="#000000" stroke="none">
<path d="M0 3863 c1 -1232 1 -1257 19 -1205 37 106 125 182 234 201 90 16
4524 16 4614 0 109 -19 197 -95 234 -201 18 -52 18 -27 19 1205 l0 1257 -2560
0 -2560 0 0 -1257z"/>
<path d="M0 1258 l0 -1258 2560 0 2560 0 0 1258 c-1 1231 -1 1256 -19 1204
-37 -106 -125 -182 -234 -201 -90 -16 -4524 -16 -4614 0 -109 19 -197 95 -234
201 -18 52 -18 27 -19 -1204z"/>
</g>
</svg>
