<?xml version="1.0" encoding="UTF-8"?>
<svg id="Calque_1" data-name="Calque 1" xmlns="http://www.w3.org/2000/svg" viewBox="0 0 20 20">
  <defs>
    <style>
      .cls-1 {
        fill: #fff;
      }
    </style>
  </defs>
  <path class="cls-1" d="m14.61,13.18s-.55.19-1.01.22c0,0-.31,1.1-1.71,1.48-.06.02-.11.05-.13.11l-1.22,2.49c-.03.06-.03.13,0,.19l.92,1.71c.07.13.25.15.34.04l1.46-1.71s.1-.07.16-.07l2.82-.02c.15,0,.25-.16.19-.29l-1.83-4.12Z"/>
  <path class="cls-1" d="m5.29,13.6c.09-.18.29-.22.49-.19.24.03.43.09.69.12,0,0,.88,2.06,3.41.95l.85.16-1.97,4.56c-.12.28-.5.33-.69.09l-1.34-1.68c-.08-.1-.2-.16-.33-.15l-2.51.08c-.31,0-.51-.32-.37-.59l1.77-3.35Z"/>
  <path class="cls-1" d="m16.53,5.32c-.15-.53-.64-.83-.91-1.3-.29-.5-.36-1.15-.76-1.55-.44-.45-1.2-.64-1.75-.95-.45-.25-.66-.66-1.17-.8-.61-.18-1.26.04-1.93.04-.63,0-1.25-.23-1.83-.07-.55.15-.7.61-1.18.89-.51.29-1.34.41-1.76.82-.41.41-.48,1.08-.78,1.58-.3.51-.82.84-.99,1.42s.11,1.14.11,1.77-.28,1.27-.12,1.84c.16.59.74.86,1.05,1.37.3.5.31,1.24.72,1.65.4.39,1.03.44,1.52.72.48.28.8.81,1.34.97.61.18,1.25-.07,1.91-.07.63,0,1.23.26,1.81.1.56-.16.8-.71,1.29-1,.55-.32,1.36-.39,1.8-.85.37-.39.41-1,.68-1.47.26-.45.76-.76.91-1.27.19-.62-.23-1.41-.23-2.09s.43-1.16.25-1.75Zm-6.53,7.12c-2.88,0-5.23-2.35-5.23-5.23S7.12,1.98,10,1.98s5.23,2.35,5.23,5.23-2.35,5.23-5.23,5.23Z"/>
  <circle class="cls-1" cx="10" cy="7.21" r="4.19"/>
</svg>